<svg xmlns="http://www.w3.org/2000/svg"
	xmlns:xlink="http://www.w3.org/1999/xlink" viewBox="0 0 22 22">
	<path d="M10,7C9.2,7,8.4,7.3,7.9,7.9S7,9.2,7,10v9c0,0.8,0.3,1.6,0.9,2.1S9.2,22,10,22h9c0.8,0,1.6-0.3,2.1-0.9S22,19.8,22,19v-9
	c0-0.8-0.3-1.6-0.9-2.1S19.8,7,19,7L10,7z M10,9h9c0.3,0,0.5,0.1,0.7,0.3S20,9.7,20,10v9c0,0.3-0.1,0.5-0.3,0.7S19.3,20,19,20h-9
	c-0.3,0-0.5-0.1-0.7-0.3S9,19.3,9,19v-9c0-0.3,0.1-0.5,0.3-0.7S9.7,9,10,9z M4,13H3c-0.3,0-0.5-0.1-0.7-0.3S2,12.3,2,12V3
	c0-0.3,0.1-0.5,0.3-0.7S2.7,2,3,2h9c0.3,0,0.5,0.1,0.7,0.3S13,2.7,13,3v1c0,0.6,0.4,1,1,1s1-0.4,1-1V3c0-0.8-0.3-1.6-0.9-2.1
	S12.8,0,12,0H3C2.2,0,1.4,0.3,0.9,0.9S0,2.2,0,3v9c0,0.8,0.3,1.6,0.9,2.1S2.2,15,3,15h1c0.6,0,1-0.4,1-1S4.6,13,4,13z"/>
</svg>
