<svg xmlns="http://www.w3.org/2000/svg" xmlns:xlink="http://www.w3.org/1999/xlink" style="position: absolute; width: 0; height: 0"><symbol id="icon-copy" viewBox="0 0 22 22">
	<path d="M10,7C9.2,7,8.4,7.3,7.9,7.9S7,9.2,7,10v9c0,0.8,0.3,1.6,0.9,2.1S9.2,22,10,22h9c0.8,0,1.6-0.3,2.1-0.9S22,19.8,22,19v-9
	c0-0.8-0.3-1.6-0.9-2.1S19.8,7,19,7L10,7z M10,9h9c0.3,0,0.5,0.1,0.7,0.3S20,9.7,20,10v9c0,0.3-0.1,0.5-0.3,0.7S19.3,20,19,20h-9
	c-0.3,0-0.5-0.1-0.7-0.3S9,19.3,9,19v-9c0-0.3,0.1-0.5,0.3-0.7S9.7,9,10,9z M4,13H3c-0.3,0-0.5-0.1-0.7-0.3S2,12.3,2,12V3
	c0-0.3,0.1-0.5,0.3-0.7S2.7,2,3,2h9c0.3,0,0.5,0.1,0.7,0.3S13,2.7,13,3v1c0,0.6,0.4,1,1,1s1-0.4,1-1V3c0-0.8-0.3-1.6-0.9-2.1
	S12.8,0,12,0H3C2.2,0,1.4,0.3,0.9,0.9S0,2.2,0,3v9c0,0.8,0.3,1.6,0.9,2.1S2.2,15,3,15h1c0.6,0,1-0.4,1-1S4.6,13,4,13z"></path>
</symbol><symbol id="icon-logo-vue" viewBox="0 0 261.76 226.69">
  <g transform="matrix(1.3333 0 0 -1.3333 -76.311 313.34)">
    <g transform="translate(178.06 235.01)">
      <path d="m0 0-22.669-39.264-22.669 39.264h-75.491l98.16-170.02 98.16 170.02z" fill="#41b883"></path>
    </g>
    <g transform="translate(178.06 235.01)">
      <path d="m0 0-22.669-39.264-22.669 39.264h-36.227l58.896-102.01 58.896 102.01z" fill="#34495e"></path>
    </g>
  </g>
</symbol><symbol id="icon-save" viewBox="0 0 20 20">
	<path d="M17,20c0.8,0,1.6-0.3,2.1-0.9S20,17.8,20,17V6c0-0.3-0.1-0.5-0.3-0.7l-5-5C14.5,0.1,14.3,0,14,0H3C2.2,0,1.4,0.3,0.9,0.9
	S0,2.2,0,3v14c0,0.8,0.3,1.6,0.9,2.1S2.2,20,3,20H17z M6,18v-6h8v6H6z M4,2v4c0,0.6,0.4,1,1,1h8c0.6,0,1-0.4,1-1s-0.4-1-1-1H6V2h7.6
	L18,6.4V17c0,0.3-0.1,0.5-0.3,0.7S17.3,18,17,18h-1v-7c0-0.6-0.4-1-1-1H5c-0.6,0-1,0.4-1,1v7H3c-0.3,0-0.5-0.1-0.7-0.3S2,17.3,2,17
	V3c0-0.3,0.1-0.5,0.3-0.7S2.7,2,3,2H4z"></path>
</symbol></svg>