<svg xmlns="http://www.w3.org/2000/svg" viewBox="0 0 20 20">
  <path d="M15,4c-.6,0-1,.4-1,1s.4,1,1,1v-2ZM15,15v-1c-.6,0-1,.4-1,1h1ZM15,19l-.7.7c.4.4,1,.4,1.4,0,.2-.2.3-.4.3-.7h-1ZM11,15l.7-.7c-.2-.2-.4-.3-.7-.3v1ZM6.3,13.7c-.4-.4-1-.4-1.4,0-.4.4-.4,1,0,1.4,0,0,1.4-1.4,1.4-1.4ZM5.6,14.4l-.7-.7.7.7ZM9,11v-1c-.3,0-.5.1-.7.3l.7.7ZM5,11h1c0-.6-.4-1-1-1v1ZM5,15h-1c0,.6.4,1,1,1,.3,0,.5-.1.7-.3l-.7-.7ZM15,6h2v-2h-2v2ZM17,6c.6,0,1,.4,1,1h2c0-1.7-1.3-3-3-3v2ZM18,7v6h2v-6h-2ZM18,13c0,.6-.4,1-1,1v2c1.7,0,3-1.3,3-3h-2ZM17,14h-2v2h2v-2ZM14,15v4h2v-4h-2ZM15.7,18.3l-4-4-1.4,1.4,4,4s1.4-1.4,1.4-1.4ZM11,14h-4v2h4v-2ZM7,14c-.3,0-.5-.1-.7-.3l-1.4,1.4c.5.5,1.3.9,2.1.9v-2ZM6.3,15.1l3.4-3.4-1.4-1.4-3.4,3.4s1.4,1.4,1.4,1.4ZM9,12h4v-2h-4v2ZM13,12c1.7,0,3-1.3,3-3h-2c0,.6-.4,1-1,1v2ZM16,9V3h-2v6h2ZM16,3c0-1.7-1.3-3-3-3v2c.6,0,1,.4,1,1h2ZM13,0H3v2h10V0ZM3,0C1.3,0,0,1.3,0,3h2c0-.6.4-1,1-1V0ZM0,3v6h2V3H0ZM0,9c0,1.7,1.3,3,3,3v-2c-.6,0-1-.4-1-1H0ZM3,12h2v-2h-2v2ZM4,11v4h2v-4h-2ZM5.7,15.7l.6-.6-1.4-1.4-.6.6s1.4,1.4,1.4,1.4Z"/>
</svg>
