<svg xmlns="http://www.w3.org/2000/svg" viewBox="0 0 20 16.3">
  <path d="M11,2.3c0-.6-.4-1-1-1s-1,.4-1,1h2ZM9,15.3c0,.6.4,1,1,1s1-.4,1-1h-2ZM9.4,3.1c.5.3,1.1.2,1.4-.3s.2-1.1-.3-1.4c0,0-1.1,1.7-1.1,1.7ZM1,2.3l-.6-.8C.2,1.6,0,1.9,0,2.3h1ZM1,15.3H0c0,.6.4,1,1,1,.2,0,.4,0,.6-.2l-.6-.8ZM9.4,16.1c.5.3,1.1.2,1.4-.3s.2-1.1-.3-1.4l-1.1,1.7ZM9.4,1.4c-.5.3-.6.9-.3,1.4s.9.6,1.4.3c0,0-1.1-1.7-1.1-1.7ZM19,2.3h1c0-.3-.2-.6-.4-.8l-.6.8ZM19,15.3l-.6.8c.5.3,1.1.2,1.4-.3.1-.2.2-.4.2-.6h-1ZM9.4,14.4c-.5.3-.6.9-.3,1.4s.9.6,1.4.3l-1.1-1.7ZM9,2.3v13h2V2.3s-2,0-2,0ZM10.6,1.4c-1.3-.9-3.1-1.4-5.1-1.4v2c1.6,0,3,.4,3.9,1.1l1.1-1.7h0ZM5.5,0C3.6,0,1.8.5.4,1.4l1.1,1.7c1-.7,2.4-1.1,3.9-1.1V0ZM0,2.3v13h2V2.3s-2,0-2,0ZM1.6,16.1c1-.7,2.4-1.1,3.9-1.1v-2c-1.9,0-3.7.5-5.1,1.4l1.1,1.7h0ZM5.5,15c1.6,0,3,.4,3.9,1.1l1.1-1.7c-1.4-.9-3.1-1.4-5.1-1.4v2ZM10.6,3.1c1-.7,2.4-1.1,3.9-1.1V0c-1.9,0-3.7.5-5.1,1.4l1.1,1.7h0ZM14.5,2c1.6,0,3,.4,3.9,1.1l1.1-1.7c-1.4-.9-3.1-1.4-5.1-1.4v2ZM18,2.3v13h2V2.3s-2,0-2,0ZM19.6,14.4c-1.4-.9-3.1-1.4-5.1-1.4v2c1.6,0,3,.4,3.9,1.1l1.1-1.7h0ZM14.5,13c-1.9,0-3.7.5-5.1,1.4l1.1,1.7c1-.7,2.4-1.1,3.9-1.1v-2Z"/>
</svg>
