<svg xmlns="http://www.w3.org/2000/svg" viewBox="0 0 18 20">
  <path d="M11.5,8.9c.5-.2.7-.8.5-1.3s-.8-.7-1.3-.5c0,0,0,0,0,0l.9,1.8ZM8.6,8.1c-.5.2-.7.8-.5,1.3.2.5.8.7,1.3.5,0,0,0,0,0,0,0,0-.9-1.8-.9-1.8ZM8.6,9.9c.5.3,1.1,0,1.3-.4s0-1.1-.4-1.3c0,0,0,0,0,0l-.9,1.8ZM7.5,7.1c-.5-.3-1.1,0-1.3.4-.3.5,0,1.1.4,1.3,0,0,0,0,0,0,0,0,.9-1.8.9-1.8ZM10,9c0-.6-.4-1-1-1s-1,.4-1,1h2ZM8,11.5c0,.6.4,1,1,1s1-.4,1-1h-2ZM17.5,5.9c.5-.2.7-.8.5-1.3-.2-.5-.8-.7-1.3-.5,0,0,0,0,0,0l.9,1.8ZM14.6,5.1c-.5.2-.7.8-.5,1.3s.8.7,1.3.5c0,0,0,0,0,0l-.9-1.8ZM16.6,5.9c.5.3,1.1,0,1.3-.4.3-.5,0-1.1-.4-1.3,0,0,0,0,0,0l-.9,1.8ZM15.5,3.1c-.5-.3-1.1,0-1.3.4-.3.5,0,1.1.4,1.3,0,0,0,0,0,0l.9-1.8ZM18,5c0-.6-.4-1-1-1s-1,.4-1,1h2ZM16,7.5c0,.6.4,1,1,1s1-.4,1-1h-2ZM10.6,2.9c.5.3,1.1,0,1.3-.4.3-.5,0-1.1-.4-1.3,0,0,0,0,0,0l-.9,1.8ZM9,1l.4-.9c-.3-.1-.6-.1-.9,0l.4.9ZM6.6,1.1c-.5.2-.7.8-.5,1.3s.8.7,1.3.5c0,0,0,0,0,0l-.9-1.8ZM.6,4.1c-.5.2-.7.8-.5,1.3.2.5.8.7,1.3.5,0,0,0,0,0,0l-.9-1.8ZM3.5,4.9c.5-.2.7-.8.5-1.3s-.8-.7-1.3-.5c0,0,0,0,0,0l.9,1.8ZM1.5,4.1c-.5-.3-1.1,0-1.3.4s0,1.1.4,1.3c0,0,0,0,0,0l.9-1.8ZM2.6,6.9c.5.3,1.1,0,1.3-.4s0-1.1-.4-1.3c0,0,0,0,0,0l-.9,1.8ZM2,5c0-.6-.4-1-1-1S0,4.4,0,5h2ZM0,7.5c0,.6.4,1,1,1s1-.4,1-1H0ZM8.6,19.9c.5.3,1.1,0,1.3-.4s0-1.1-.4-1.3c0,0,0,0,0,0l-.9,1.8ZM7.5,17.1c-.5-.3-1.1,0-1.3.4-.3.5,0,1.1.4,1.3,0,0,0,0,0,0l.9-1.8ZM8.6,18.1c-.5.2-.7.8-.5,1.3.2.5.8.7,1.3.5,0,0,0,0,0,0l-.9-1.8ZM11.5,18.9c.5-.2.7-.8.5-1.3-.2-.5-.8-.7-1.3-.5,0,0,0,0,0,0l.9,1.8ZM8,19c0,.6.4,1,1,1s1-.4,1-1h-2ZM10,16.5c0-.6-.4-1-1-1s-1,.4-1,1h2ZM2.6,16.9c.5.3,1.1,0,1.3-.4.3-.5,0-1.1-.4-1.3,0,0,0,0,0,0l-.9,1.8ZM1,15H0c0,.4.2.7.6.9l.4-.9ZM2,12.5c0-.6-.4-1-1-1S0,11.9,0,12.5h2ZM14.6,15.1c-.5.2-.7.8-.5,1.3.2.5.8.7,1.3.5,0,0,0,0,0,0,0,0-.9-1.8-.9-1.8ZM17,15l.4.9c.3-.2.6-.5.6-.9h-1ZM18,12.5c0-.6-.4-1-1-1s-1,.4-1,1h2ZM10.6,7.1l-2,1,.9,1.8,2-1s-.9-1.8-.9-1.8ZM9.5,8.1l-2-1-.9,1.8,2,1s.9-1.8.9-1.8ZM8,9v2.5h2v-2.5h-2ZM16.6,4.1l-2,1,.9,1.8,2-1s-.9-1.8-.9-1.8ZM17.5,4.1l-2-1-.9,1.8,2,1,.9-1.8ZM16,5v2.5h2v-2.5h-2ZM11.5,1.1L9.5.1l-.9,1.8,2,1,.9-1.8ZM8.6.1l-2,1,.9,1.8,2-1s-.9-1.8-.9-1.8ZM1.5,5.9l2-1-.9-1.8-2,1,.9,1.8ZM.6,5.9l2,1,.9-1.8-2-1-.9,1.8ZM0,5v2.5h2v-2.5H0ZM9.5,18.1l-2-1-.9,1.8,2,1,.9-1.8ZM9.5,19.9l2-1-.9-1.8-2,1,.9,1.8ZM10,19v-2.5h-2v2.5h2ZM3.5,15.1l-2-1-.9,1.8,2,1s.9-1.8.9-1.8ZM2,15v-2.5H0v2.5h2ZM15.5,16.9l2-1-.9-1.8-2,1,.9,1.8ZM18,15v-2.5h-2v2.5h2Z"/>
</svg>
