<svg xmlns="http://www.w3.org/2000/svg"
	xmlns:xlink="http://www.w3.org/1999/xlink" viewBox="0 0 20 20">
	<path d="M17,20c0.8,0,1.6-0.3,2.1-0.9S20,17.8,20,17V6c0-0.3-0.1-0.5-0.3-0.7l-5-5C14.5,0.1,14.3,0,14,0H3C2.2,0,1.4,0.3,0.9,0.9
	S0,2.2,0,3v14c0,0.8,0.3,1.6,0.9,2.1S2.2,20,3,20H17z M6,18v-6h8v6H6z M4,2v4c0,0.6,0.4,1,1,1h8c0.6,0,1-0.4,1-1s-0.4-1-1-1H6V2h7.6
	L18,6.4V17c0,0.3-0.1,0.5-0.3,0.7S17.3,18,17,18h-1v-7c0-0.6-0.4-1-1-1H5c-0.6,0-1,0.4-1,1v7H3c-0.3,0-0.5-0.1-0.7-0.3S2,17.3,2,17
	V3c0-0.3,0.1-0.5,0.3-0.7S2.7,2,3,2H4z"/>
</svg>
